<?xml version="1.0" encoding="UTF-8" standalone="no"?>
<!-- Created with Inkscape (http://www.inkscape.org/) -->

<svg
   xmlns:dc="http://purl.org/dc/elements/1.1/"
   xmlns:cc="http://creativecommons.org/ns#"
   xmlns:rdf="http://www.w3.org/1999/02/22-rdf-syntax-ns#"
   xmlns:svg="http://www.w3.org/2000/svg"
   xmlns="http://www.w3.org/2000/svg"
   xmlns:sodipodi="http://sodipodi.sourceforge.net/DTD/sodipodi-0.dtd"
   xmlns:inkscape="http://www.inkscape.org/namespaces/inkscape"
   width="1600px"
   height="1200px"
   id="svg3092"
   version="1.1"
   inkscape:version="0.91 r13725"
   inkscape:export-filename="minio-sticker.png"
   inkscape:export-xdpi="318.19"
   inkscape:export-ydpi="318.19"
   sodipodi:docname="profile.svg">
  <defs
     id="defs3094" />
  <sodipodi:namedview
     id="base"
     pagecolor="#ffffff"
     bordercolor="#666666"
     borderopacity="1.0"
     inkscape:pageopacity="0.0"
     inkscape:pageshadow="2"
     inkscape:zoom="0.42426407"
     inkscape:cx="47.964658"
     inkscape:cy="489.62433"
     inkscape:current-layer="layer1"
     inkscape:document-units="px"
     showgrid="false"
     inkscape:window-width="1366"
     inkscape:window-height="702"
     inkscape:window-x="0"
     inkscape:window-y="27"
     inkscape:window-maximized="1" />
  <metadata
     id="metadata3097">
    <rdf:RDF>
      <cc:Work
         rdf:about="">
        <dc:format>image/svg+xml</dc:format>
        <dc:type
           rdf:resource="http://purl.org/dc/dcmitype/StillImage" />
        <dc:title />
      </cc:Work>
    </rdf:RDF>
  </metadata>
  <g
     id="layer1"
     inkscape:label="Layer 1"
     inkscape:groupmode="layer">
    <g
       transform="matrix(1.1977032,0,0,1.1977032,-192.30014,-265.71691)"
       id="g3889"
       inkscape:export-filename="./profile.png"
       inkscape:export-xdpi="90.000008"
       inkscape:export-ydpi="90.000008">
      <path
         id="path48"
         style="fill:#f8f8f8;fill-opacity:1;fill-rule:nonzero;stroke:none"
         d="m 803.42903,801.80813 c 12.40802,4.17067 27.0499,9.11665 37.95186,12.80906 -12.01295,-21.20683 -27.84305,-34.11687 -37.95186,-40.78578 l 0,27.97672 z m 0,93.72113 -14.22303,8.96217 0,-92.45864 c -1.52985,-0.5139 -2.97948,-0.9981 -4.33405,-1.45259 -19.98593,-6.67189 -32.7207,-17.95703 -35.85168,-31.77904 -2.54577,-11.21386 1.55064,-23.02184 11.24654,-32.39691 8.84929,-8.55225 21.22761,-18.39964 31.17304,-26.31619 3.60329,-2.86658 6.73129,-5.3173 9.2028,-7.39669 2.31406,-1.93977 1.61598,-4.95488 0.57033,-6.21441 -1.74073,-2.09127 -4.61921,-1.74669 -6.56195,-0.32379 -0.10398,0.0802 -5.65595,4.40832 -5.65595,4.40832 l -8.58195,-11.57033 c 0,0 5.60843,-4.14096 5.8223,-4.30137 8.39777,-6.155 19.54034,-4.98758 25.92406,2.71509 3.19039,3.84093 4.68459,8.69779 4.20929,13.67051 -0.47232,4.9549 -2.84579,9.43153 -6.68078,12.5922 -2.58439,2.12988 -5.73912,4.64298 -9.39291,7.54522 -9.70779,7.72641 -21.78905,17.33915 -30.14226,25.41907 -6.1253,5.9233 -8.70671,12.67834 -7.26896,19.02345 1.9873,8.75424 11.33268,16.34105 26.32213,21.37911 l 0,-46.22486 c 40.29563,13.62298 68.76248,61.22321 78.20589,87.64039 0,0 -41.76308,-14.15768 -63.98286,-21.64051 l 0,78.7198"
         inkscape:connector-curvature="0" />
      <path
         id="path50"
         style="fill:#cdccca;fill-opacity:1;fill-rule:nonzero;stroke:none"
         d="m 803.42903,826.12513 -14.22303,-4.78261 0,-9.30973 14.22303,4.77667 0,9.31567"
         inkscape:connector-curvature="0" />
      <path
         id="path52"
         style="fill:#f14621;fill-opacity:1;fill-rule:nonzero;stroke:none"
         d="m 734.75566,745.06155 c -0.23469,0.16636 -0.54956,0.14853 -0.73077,-0.0743 -0.17823,-0.22576 -0.13063,-0.53766 0.0802,-0.73373 4.93113,-4.51525 24.45661,-23.86844 46.30805,-45.2624 l 8.58193,11.57033 c 0,0 -53.54135,34.01288 -54.23942,34.50007"
         inkscape:connector-curvature="0" />
    </g>
  </g>
</svg>
